<svg width="24" height="24" viewBox="0 0 16 16" fill="none" xmlns="http://www.w3.org/2000/svg">
<path d="M12 8C12 10.2091 10.2091 12 8 12C5.79086 12 4 10.2091 4 8C4 5.79086 5.79086 4 8 4C10.2091 4 12 5.79086 12 8Z" fill="#FFBF00"/>
<path d="M9.10538 2.78136L8 0L6.89462 2.78136C7.25125 2.7062 7.62101 2.66667 8 2.66667C8.37899 2.66667 8.74875 2.7062 9.10538 2.78136Z" fill="#FFBF00"/>
<path d="M10.908 3.52847C11.5317 3.93491 12.0651 4.46831 12.4715 5.092L13.6569 2.34315L10.908 3.52847Z" fill="#FFBF00"/>
<path d="M13.2186 6.89462C13.2938 7.25125 13.3333 7.62101 13.3333 8C13.3333 8.37899 13.2938 8.74875 13.2186 9.10538L16 8L13.2186 6.89462Z" fill="#FFBF00"/>
<path d="M12.4715 10.908C12.0651 11.5317 11.5317 12.0651 10.908 12.4715L13.6569 13.6569L12.4715 10.908Z" fill="#FFBF00"/>
<path d="M9.10538 13.2186C8.74875 13.2938 8.37899 13.3333 8 13.3333C7.62101 13.3333 7.25125 13.2938 6.89462 13.2186L8 16L9.10538 13.2186Z" fill="#FFBF00"/>
<path d="M5.092 12.4715C4.46831 12.0651 3.93491 11.5317 3.52847 10.908L2.34315 13.6569L5.092 12.4715Z" fill="#FFBF00"/>
<path d="M2.78136 9.10538C2.7062 8.74875 2.66667 8.37899 2.66667 8C2.66667 7.62101 2.7062 7.25125 2.78136 6.89462L0 8L2.78136 9.10538Z" fill="#FFBF00"/>
<path d="M3.52847 5.092C3.93491 4.46831 4.46831 3.93491 5.092 3.52847L2.34315 2.34315L3.52847 5.092Z" fill="#FFBF00"/>
</svg>
